# xmcd CD database file
#
# Track frame offsets:
#	150
#	28035
#	56797
#	75710
#	102680
#	121565
#	142187
#	163752
#	186532
#	206057
#	228432
#	246377
#
# Disc length: 3533 seconds
#
# Revision: 0
# Processed by: cddbd v1.4PL0 Copyright (c) Steve Scherf et al.
# Submitted via: CDex 1.51
#
DISCID=b40dcb0c
DTITLE=Georges Arvanitas - Rencontre
DYEAR=1998
DGENRE=Jazz
TTITLE0=Footprints
TTITLE1=Dear Old Stockholm
TTITLE2=Very Early
TTITLE3=Fables Of Faubus
TTITLE4=Off Minor
TTITLE5=Come Sunday
TTITLE6=Bolivia
TTITLE7=East Of The Sun
TTITLE8=Goodbye Pork Pie Hat
TTITLE9=Dug's Blues
TTITLE10=Nuages
TTITLE11=In A Sentimental Mood
EXTD=YEAR: 1998
EXTT0=
EXTT1=
EXTT2=
EXTT3=
EXTT4=
EXTT5=
EXTT6=
EXTT7=
EXTT8=
EXTT9=
EXTT10=
EXTT11=
PLAYORDER=
